<?xml version="1.0" encoding="UTF-8" standalone="no"?>
<svg
   xmlns:dc="http://purl.org/dc/elements/1.1/"
   xmlns:cc="http://creativecommons.org/ns#"
   xmlns:rdf="http://www.w3.org/1999/02/22-rdf-syntax-ns#"
   xmlns:svg="http://www.w3.org/2000/svg"
   xmlns="http://www.w3.org/2000/svg"
   xmlns:sodipodi="http://sodipodi.sourceforge.net/DTD/sodipodi-0.dtd"
   xmlns:inkscape="http://www.inkscape.org/namespaces/inkscape"
   width="19.842861pt"
   height="11.99995pt"
   version="1.1"
   viewBox="0 0 19.842861 11.99995"
   id="svg143"
   sodipodi:docname="button.svg"
   inkscape:version="1.0.2 (e86c870879, 2021-01-15)">
  <metadata
     id="metadata147">
    <rdf:RDF>
      <cc:Work
         rdf:about="">
        <dc:format>image/svg+xml</dc:format>
        <dc:type
           rdf:resource="http://purl.org/dc/dcmitype/StillImage" />
      </cc:Work>
    </rdf:RDF>
  </metadata>
  <sodipodi:namedview
     pagecolor="#ffffff"
     bordercolor="#666666"
     borderopacity="1"
     objecttolerance="10"
     gridtolerance="10"
     guidetolerance="10"
     inkscape:pageopacity="0"
     inkscape:pageshadow="2"
     inkscape:window-width="2516"
     inkscape:window-height="1376"
     id="namedview145"
     showgrid="false"
     inkscape:zoom="8.64"
     inkscape:cx="36.578123"
     inkscape:cy="49.202078"
     inkscape:window-x="44"
     inkscape:window-y="27"
     inkscape:window-maximized="1"
     inkscape:current-layer="g141" />
  <defs
     id="defs65">
    <symbol
       id="u"
       overflow="visible">
      <path
         d="M 17.203,-1.0312 C 16.31628,-0.57026 15.3944,-0.22651 14.4374,0 c -0.96094,0.23828 -1.9648,0.35938 -3.0156,0.35938 -3.1172,0 -5.5859,-0.86719 -7.4062,-2.6094 -1.8242,-1.7383 -2.7344,-4.1016 -2.7344,-7.0938 0,-2.9883 0.91016,-5.3516 2.7344,-7.0938 1.8203,-1.75 4.2891,-2.625 7.4062,-2.625 1.0508,0 2.0547,0.12109 3.0156,0.35938 0.95703,0.23047 1.8789,0.57422 2.7656,1.0312 v 3.875 c -0.89844,-0.61328 -1.7812,-1.0625 -2.6562,-1.3438 -0.86719,-0.28125 -1.7773,-0.42188 -2.7344,-0.42188 -1.7188,0 -3.0742,0.55469 -4.0625,1.6562 -0.99219,1.1055 -1.4844,2.625 -1.4844,4.5625 0,1.9297 0.49219,3.4453 1.4844,4.5469 0.98828,1.1055 2.3438,1.6562 4.0625,1.6562 0.95703,0 1.8672,-0.14062 2.7344,-0.42188 0.875,-0.28125 1.7578,-0.72656 2.6562,-1.3438 z"
         id="path2" />
    </symbol>
    <symbol
       id="d"
       overflow="visible">
      <path
         d="m 12.594,-10.219 c -0.39844,-0.1875 -0.78906,-0.32031 -1.1719,-0.40625 -0.38672,-0.09375 -0.77734,-0.14062 -1.1719,-0.14062 -1.1562,0 -2.0469,0.37109 -2.6719,1.1094 -0.625,0.74219 -0.9375,1.8047 -0.9375,3.1875 v 6.4688 H 2.1564 v -14.047 h 4.4844 v 2.3125 c 0.58203,-0.92578 1.25,-1.5977 2,-2.0156 0.75,-0.42578 1.6445,-0.64062 2.6875,-0.64062 0.14453,0 0.30469,0.01172 0.48438,0.03125 0.17578,0.01172 0.42969,0.03906 0.76562,0.07813 z"
         id="path5" />
    </symbol>
    <symbol
       id="a"
       overflow="visible">
      <path
         d="m 16.188,-7.0625 v 1.2812 h -10.5 c 0.10156,1.0547 0.47656,1.8438 1.125,2.375 0.65625,0.52344 1.5703,0.78125 2.75,0.78125 0.9375,0 1.8984,-0.14062 2.8906,-0.42188 1,-0.28125 2.0195,-0.70312 3.0625,-1.2656 v 3.4531 c -1.0625,0.40625 -2.125,0.71094 -3.1875,0.90625 -1.0625,0.20703 -2.125,0.3125 -3.1875,0.3125 -2.543,0 -4.5156,-0.64453 -5.9219,-1.9375 -1.4062,-1.2891 -2.1094,-3.1016 -2.1094,-5.4375 0,-2.2891 0.6875,-4.0938 2.0625,-5.4062 1.3828,-1.3125 3.2891,-1.9688 5.7188,-1.9688 2.207,0 3.9727,0.66797 5.2969,2 1.332,1.3359 2,3.1094 2,5.3281 z m -4.625,-1.4844 c 0,-0.85156 -0.25,-1.5391 -0.75,-2.0625 -0.49219,-0.53125 -1.1367,-0.79688 -1.9375,-0.79688 -0.875,0 -1.5859,0.24609 -2.125,0.73438 -0.54297,0.49219 -0.88281,1.1992 -1.0156,2.125 z"
         id="path8" />
    </symbol>
    <symbol
       id="c"
       overflow="visible">
      <path
         d="m 8.4531,-6.3281 c -0.9375,0 -1.6484,0.16406 -2.125,0.48438 -0.46875,0.3125 -0.70312,0.78125 -0.70312,1.4062 0,0.5625 0.1875,1.0078 0.5625,1.3281 0.38281,0.32422 0.91406,0.48438 1.5938,0.48438 0.85156,0 1.5664,-0.30078 2.1406,-0.90625 0.57031,-0.60156 0.85938,-1.3633 0.85938,-2.2812 v -0.51562 z m 6.8594,-1.6875 V 0 h -4.5312 v -2.0781 c -0.59375,0.85547 -1.2734,1.4766 -2.0312,1.8594 -0.75,0.38281 -1.6641,0.57812 -2.7344,0.57812 -1.4609,0 -2.6406,-0.42188 -3.5469,-1.2656 -0.90625,-0.85156 -1.3594,-1.957 -1.3594,-3.3125 0,-1.6445 0.5625,-2.8516 1.6875,-3.625 1.1328,-0.76953 2.9141,-1.1562 5.3438,-1.1562 h 2.6406 v -0.34375 c 0,-0.70703 -0.28125,-1.2266 -0.84375,-1.5625 -0.55469,-0.33203 -1.4219,-0.5 -2.6094,-0.5 -0.96875,0 -1.8672,0.10156 -2.6875,0.29688 -0.82422,0.1875 -1.5938,0.47656 -2.3125,0.85938 v -3.4219 c 0.96875,-0.22656 1.9375,-0.40625 2.9062,-0.53125 0.9687,-0.125 1.9375,-0.1875 2.9062,-0.1875 2.5312,0 4.3594,0.5 5.4844,1.5 1.125,1 1.6875,2.625 1.6875,4.875 z"
         id="path11" />
    </symbol>
    <symbol
       id="b"
       overflow="visible">
      <path
         d="m 7.0625,-18.031 v 3.9844 h 4.625 v 3.2031 h -4.625 v 5.9688 c 0,0.64844 0.12891,1.0859 0.39062,1.3125 0.25781,0.23047 0.77344,0.34375 1.5469,0.34375 h 2.2969 v 3.2188 h -3.8438 c -1.7734,0 -3.0273,-0.36719 -3.7656,-1.1094 -0.74219,-0.73828 -1.1094,-1.9922 -1.1094,-3.7656 v -5.9688 h -2.2344 v -3.2031 h 2.2344 v -3.9844 z"
         id="path14" />
    </symbol>
    <symbol
       id="k"
       overflow="visible">
      <path
         d="m 11.719,-11.984 v -7.5312 h 4.5156 V 8e-4 H 11.719 v -2.0312 c -0.625,0.82422 -1.3125,1.4297 -2.0625,1.8125 -0.74219,0.38281 -1.5938,0.57812 -2.5625,0.57812 -1.7422,0 -3.168,-0.6875 -4.2812,-2.0625 -1.1055,-1.375 -1.6562,-3.1445 -1.6562,-5.3125 0,-2.1641 0.55078,-3.9375 1.6562,-5.3125 1.1133,-1.375 2.5391,-2.0625 4.2812,-2.0625 0.96875,0 1.8203,0.19922 2.5625,0.59375 0.75,0.38672 1.4375,0.99219 2.0625,1.8125 z m -2.9688,9.0938 c 0.96875,0 1.7031,-0.34766 2.2031,-1.0469 0.50781,-0.70703 0.76562,-1.7344 0.76562,-3.0781 0,-1.332 -0.25781,-2.3477 -0.76562,-3.0469 -0.5,-0.70703 -1.2344,-1.0625 -2.2031,-1.0625 -0.94922,0 -1.6797,0.35547 -2.1875,1.0625 -0.5,0.69922 -0.75,1.7148 -0.75,3.0469 0,1.3438 0.25,2.3711 0.75,3.0781 0.50781,0.69922 1.2383,1.0469 2.1875,1.0469 z"
         id="path17" />
    </symbol>
    <symbol
       id="j"
       overflow="visible">
      <path
         d="m 9.6406,-2.8906 c 0.95703,0 1.6875,-0.34766 2.1875,-1.0469 0.50781,-0.70703 0.76562,-1.7344 0.76562,-3.0781 0,-1.332 -0.25781,-2.3477 -0.76562,-3.0469 -0.5,-0.70703 -1.2305,-1.0625 -2.1875,-1.0625 -0.96875,0 -1.7148,0.35547 -2.2344,1.0625 -0.51172,0.71094 -0.76562,1.7266 -0.76562,3.0469 0,1.3359 0.25391,2.3555 0.76562,3.0625 0.51953,0.71094 1.2656,1.0625 2.2344,1.0625 z m -3,-9.0938 c 0.625,-0.82031 1.3125,-1.4258 2.0625,-1.8125 0.75,-0.39453 1.6133,-0.59375 2.5938,-0.59375 1.7266,0 3.1484,0.6875 4.2656,2.0625 1.1133,1.375 1.6719,3.1484 1.6719,5.3125 0,2.168 -0.55859,3.9375 -1.6719,5.3125 -1.1172,1.375 -2.5391,2.0625 -4.2656,2.0625 -0.98047,0 -1.8438,-0.19531 -2.5938,-0.57812 -0.75,-0.38281 -1.4375,-0.98828 -2.0625,-1.8125 V -7e-5 H 2.1562 v -19.516 h 4.4844 z"
         id="path20" />
    </symbol>
    <symbol
       id="f"
       overflow="visible">
      <path
         d="m 0.3125,-14.047 h 4.4844 l 3.7812,9.5312 3.2188,-9.5312 h 4.4844 L 10.3751,1.328 C 9.78135,2.8905 9.086,3.9842 8.297,4.6092 7.50403,5.2342 6.4611,5.5467 5.172,5.5467 H 2.5782 V 2.5936 h 1.3906 c 0.76953,0 1.3281,-0.12109 1.6719,-0.35938 0.34375,-0.24219 0.61328,-0.67969 0.8125,-1.3125 l 0.125,-0.375 z"
         id="path23" />
    </symbol>
    <symbol
       id="i"
       overflow="visible">
      <path
         d="m 15.391,-18.141 v 3.9688 c -1.0312,-0.45703 -2.0391,-0.80078 -3.0156,-1.0312 -0.98047,-0.23828 -1.9023,-0.35938 -2.7656,-0.35938 -1.1562,0 -2.0117,0.16406 -2.5625,0.48438 -0.55469,0.3125 -0.82812,0.80469 -0.82812,1.4688 0,0.5 0.1875,0.89062 0.5625,1.1719 0.375,0.28128 1.0508,0.52344 2.0312,0.71875 l 2.0469,0.42188 c 2.082,0.41797 3.5625,1.0547 4.4375,1.9062 0.88281,0.85547 1.3281,2.0703 1.3281,3.6406 0,2.0625 -0.61719,3.6016 -1.8438,4.6094 -1.2305,1 -3.1016,1.5 -5.6094,1.5 -1.1875,0 -2.3828,-0.11719 -3.5781,-0.34375 -1.1992,-0.21875 -2.3984,-0.55078 -3.5938,-1 v -4.0781 c 1.1953,0.64844 2.3516,1.1328 3.4688,1.4531 1.125,0.3125 2.2031,0.46875 3.2344,0.46875 1.0508,0 1.8594,-0.17188 2.4219,-0.51562 0.5625,-0.35156 0.84375,-0.85938 0.84375,-1.5156 0,-0.58203 -0.19531,-1.0312 -0.57812,-1.3438 -0.375,-0.32031 -1.1328,-0.60938 -2.2656,-0.85938 l -1.875,-0.40625 c -1.875,-0.40625 -3.2461,-1.0469 -4.1094,-1.9219 -0.86719,-0.88281 -1.2969,-2.0664 -1.2969,-3.5469 0,-1.875 0.59766,-3.3125 1.7969,-4.3125 1.207,-1 2.9414,-1.5 5.2031,-1.5 1.0312,0 2.0859,0.07813 3.1719,0.23438 1.082,0.15625 2.207,0.38672 3.375,0.6875 z"
         id="path26" />
    </symbol>
    <symbol
       id="h"
       overflow="visible">
      <path
         d="m 15.172,-11.719 c 0.57031,-0.86328 1.25,-1.5234 2.0312,-1.9844 0.78125,-0.45703 1.6406,-0.6875 2.5781,-0.6875 1.6133,0 2.8438,0.5 3.6875,1.5 0.84375,0.99219 1.2656,2.4375 1.2656,4.3438 V -2e-4 h -4.5156 v -7.3281 c 0.0078,-0.10156 0.01563,-0.21094 0.01563,-0.32812 0.0078,-0.125 0.01563,-0.29688 0.01563,-0.51562 0,-0.98828 -0.15234,-1.707 -0.45312,-2.1562 -0.29297,-0.44531 -0.76172,-0.67188 -1.4062,-0.67188 -0.85547,0 -1.5156,0.35547 -1.9844,1.0625 -0.46094,0.69922 -0.69922,1.7109 -0.71875,3.0312 v 6.9062 h -4.5156 v -7.3281 c 0,-1.5508 -0.13672,-2.5508 -0.40625,-3 -0.26172,-0.44531 -0.73438,-0.67188 -1.4219,-0.67188 -0.86719,0 -1.5312,0.35547 -2,1.0625 -0.46875,0.71094 -0.70312,1.7188 -0.70312,3.0312 V -3e-4 h -4.5156 v -14.047 h 4.5156 v 2.0625 c 0.55078,-0.80078 1.1875,-1.3984 1.9062,-1.7969 0.71875,-0.40625 1.5039,-0.60938 2.3594,-0.60938 0.96875,0 1.8203,0.23438 2.5625,0.70312 0.75,0.46875 1.3164,1.125 1.7031,1.9688 z"
         id="path29" />
    </symbol>
    <symbol
       id="t"
       overflow="visible">
      <path
         d="M 2.3594,-18.719 H 8.5 l 4.2656,10.016 4.2969,-10.016 h 6.125 V 0 H 18.625 V -13.703 L 14.3125,-3.594 H 11.25 L 6.9375,-13.703 V 0 H 2.3594 Z"
         id="path32" />
    </symbol>
    <symbol
       id="g"
       overflow="visible">
      <path
         d="M 16.281,-8.5469 V 0 h -4.5156 v -6.5469 c 0,-1.207 -0.02734,-2.0391 -0.07813,-2.5 -0.05469,-0.46875 -0.14844,-0.8125 -0.28125,-1.0312 -0.17969,-0.28906 -0.41797,-0.51562 -0.71875,-0.67188 -0.30469,-0.16406 -0.64844,-0.25 -1.0312,-0.25 -0.9375,0 -1.6797,0.36719 -2.2188,1.0938 -0.53125,0.71875 -0.79688,1.7188 -0.79688,3 V 2e-5 h -4.4844 v -14.047 h 4.4844 v 2.0625 c 0.67578,-0.82031 1.3945,-1.4258 2.1562,-1.8125 0.76953,-0.39453 1.6133,-0.59375 2.5312,-0.59375 1.625,0 2.8516,0.5 3.6875,1.5 0.84375,0.99219 1.2656,2.4375 1.2656,4.3438 z"
         id="path35" />
    </symbol>
    <symbol
       id="s"
       overflow="visible">
      <path
         d="M 2.1562,-14.047 H 6.6406 V 0 H 2.1562 Z m 0,-5.4688 h 4.4844 v 3.6562 H 2.1562 Z"
         id="path38" />
    </symbol>
    <symbol
       id="r"
       overflow="visible">
      <path
         d="m 11.406,-19.516 v 2.9531 H 8.9216 c -0.63672,0 -1.0781,0.11719 -1.3281,0.34375 -0.25,0.23047 -0.375,0.625 -0.375,1.1875 v 0.98438 h 3.8281 v 3.2031 H 7.2185 v 10.844 h -4.5 v -10.844 H 0.4841 v -3.2031 h 2.2344 v -0.98438 c 0,-1.5312 0.42578,-2.6602 1.2812,-3.3906 0.85156,-0.72656 2.1758,-1.0938 3.9688,-1.0938 z"
         id="path41" />
    </symbol>
    <symbol
       id="e"
       overflow="visible">
      <path
         d="m 8.8438,-11.172 c -1,0 -1.7617,0.35938 -2.2812,1.0781 -0.52344,0.71094 -0.78125,1.7344 -0.78125,3.0781 0,1.3555 0.25781,2.3906 0.78125,3.1094 0.51953,0.71094 1.2812,1.0625 2.2812,1.0625 0.97656,0 1.7227,-0.35156 2.2344,-1.0625 0.51953,-0.71875 0.78125,-1.7539 0.78125,-3.1094 0,-1.3438 -0.26172,-2.3672 -0.78125,-3.0781 -0.51172,-0.71875 -1.2578,-1.0781 -2.2344,-1.0781 z m 0,-3.2188 c 2.4141,0 4.3008,0.65625 5.6562,1.9688 1.3633,1.3047 2.0469,3.1055 2.0469,5.4062 0,2.3125 -0.68359,4.1211 -2.0469,5.4219 -1.3555,1.3047 -3.2422,1.9531 -5.6562,1.9531 -2.4297,0 -4.3242,-0.64844 -5.6875,-1.9531 -1.3672,-1.3008 -2.0469,-3.1094 -2.0469,-5.4219 0,-2.3008 0.67969,-4.1016 2.0469,-5.4062 1.3633,-1.3125 3.2578,-1.9688 5.6875,-1.9688 z"
         id="path44" />
    </symbol>
    <symbol
       id="q"
       overflow="visible">
      <path
         d="M 16.281,-8.5469 V 0 h -4.5156 v -6.5156 c 0,-1.2266 -0.02734,-2.0703 -0.07813,-2.5312 -0.05469,-0.46875 -0.14844,-0.8125 -0.28125,-1.0312 -0.17969,-0.28906 -0.41797,-0.51562 -0.71875,-0.67188 -0.30469,-0.16406 -0.64844,-0.25 -1.0312,-0.25 -0.9375,0 -1.6797,0.36719 -2.2188,1.0938 -0.53125,0.71875 -0.79688,1.7188 -0.79688,3 v 6.9062 h -4.4844 v -19.516 h 4.4844 v 7.5312 c 0.67578,-0.82031 1.3945,-1.4258 2.1562,-1.8125 0.76953,-0.39453 1.6133,-0.59375 2.5312,-0.59375 1.625,0 2.8516,0.5 3.6875,1.5 0.84375,0.99219 1.2656,2.4375 1.2656,4.3438 z"
         id="path47" />
    </symbol>
    <symbol
       id="p"
       overflow="visible">
      <path
         d="M 2.3594,-18.719 H 7.75 l 6.8125,12.844 v -12.844 h 4.5781 V 0 H 13.75 L 6.9375,-12.844 V 0 H 2.3594 Z"
         id="path50" />
    </symbol>
    <symbol
       id="o"
       overflow="visible">
      <path
         d="m 2,-5.4688 v -8.5781 h 4.5156 v 1.4062 c 0,0.76172 -0.00781,1.7188 -0.015625,2.875 v 2.2969 c 0,1.125 0.023438,1.9375 0.078125,2.4375 0.0625,0.49219 0.16406,0.85156 0.3125,1.0781 0.17578,0.29297 0.41016,0.52344 0.70312,0.6875 0.30078,0.15625 0.64453,0.23438 1.0312,0.23438 0.9375,0 1.6719,-0.35938 2.2031,-1.0781 0.53906,-0.71875 0.8125,-1.7188 0.8125,-3 v -6.9375 h 4.4844 V 8e-5 h -4.4844 v -2.0312 c -0.67969,0.82422 -1.3984,1.4297 -2.1562,1.8125 -0.75,0.38281 -1.5859,0.57812 -2.5,0.57812 -1.625,0 -2.8672,-0.49219 -3.7188,-1.4844 -0.84375,-1 -1.2656,-2.4453 -1.2656,-4.3438 z"
         id="path53" />
    </symbol>
    <symbol
       id="n"
       overflow="visible">
      <path
         d="m 2.3594,-18.719 h 8.0156 c 2.3828,0 4.2109,0.53125 5.4844,1.5938 1.2695,1.0547 1.9062,2.5547 1.9062,4.5 0,1.9688 -0.63672,3.4844 -1.9062,4.5469 -1.2734,1.0547 -3.1016,1.5781 -5.4844,1.5781 H 7.1875 v 6.5 H 2.3594 Z m 4.8281,3.4844 v 5.2344 h 2.6719 c 0.9375,0 1.6602,-0.22266 2.1719,-0.67188 0.50781,-0.45703 0.76562,-1.1094 0.76562,-1.9531 0,-0.83203 -0.25781,-1.4727 -0.76562,-1.9219 -0.51172,-0.45703 -1.2344,-0.6875 -2.1719,-0.6875 z"
         id="path56" />
    </symbol>
    <symbol
       id="m"
       overflow="visible">
      <path
         d="M 2.1562,-14.047 H 6.6406 V -0.25 c 0,1.8828 -0.45312,3.3203 -1.3594,4.3125 C 4.38276,5.05078 3.0781,5.5469 1.3593,5.5469 H -0.8595 V 2.5938 h 0.78125 c 0.85156,0 1.4375,-0.19531 1.75,-0.57812 0.32031,-0.38672 0.48438,-1.1406 0.48438,-2.2656 z m 0,-5.4688 h 4.4844 v 3.6562 H 2.1562 Z"
         id="path59" />
    </symbol>
    <symbol
       id="l"
       overflow="visible">
      <path
         d="m 13.516,-13.609 v 3.6562 c -0.61719,-0.41406 -1.2305,-0.72266 -1.8438,-0.92188 -0.61719,-0.19531 -1.25,-0.29688 -1.9062,-0.29688 -1.2617,0 -2.2422,0.36719 -2.9375,1.0938 -0.69922,0.73047 -1.0469,1.75 -1.0469,3.0625 0,1.3125 0.34766,2.3398 1.0469,3.0781 0.69531,0.73047 1.6758,1.0938 2.9375,1.0938 0.69531,0 1.3594,-0.10156 1.9844,-0.3125 0.63281,-0.20703 1.2227,-0.51953 1.7656,-0.9375 v 3.6875 c -0.71094,0.25 -1.4297,0.4375 -2.1562,0.5625 -0.71875,0.13281 -1.4453,0.20312 -2.1719,0.20312 -2.5312,0 -4.5117,-0.64453 -5.9375,-1.9375 -1.4297,-1.3008 -2.1406,-3.1133 -2.1406,-5.4375 0,-2.3125 0.71094,-4.1172 2.1406,-5.4219 1.4258,-1.3008 3.4062,-1.9531 5.9375,-1.9531 0.73828,0 1.4609,0.07031 2.1719,0.20312 0.71875,0.125 1.4375,0.32031 2.1562,0.57812 z"
         id="path62" />
    </symbol>
  </defs>
  <g
     id="g141"
     transform="translate(-175.4044,-174.4098)">
    <path
       d="m 187.38715,179.65408 5.60112,2.16129 -1.30138,1.30184 1.58022,1.58061 -0.41841,0.41796 -0.41841,0.41841 -1.58061,-1.57998 -1.30138,1.30115 -2.16107,-5.60135 m 0,-0.87588 c -0.22796,0 -0.45215,0.0892 -0.61926,0.25637 -0.24528,0.24483 -0.32252,0.61131 -0.198,0.9347 l 2.16084,5.60134 c 0.10654,0.27658 0.34627,0.48056 0.63591,0.5416 0.0602,0.0127 0.12097,0.0186 0.18135,0.0186 0.22974,0 0.45348,-0.0906 0.61927,-0.25659 l 0.68234,-0.68189 0.96134,0.96112 c 0.17114,0.17069 0.39532,0.25637 0.61927,0.25637 0.22394,0 0.44815,-0.0855 0.61926,-0.25659 l 0.41841,-0.41841 0.41886,-0.41842 c 0.34183,-0.34249 0.34183,-0.89673 -2.3e-4,-1.23836 l -0.96112,-0.96134 0.68234,-0.68189 c 0.20954,-0.20998 0.29855,-0.51097 0.23706,-0.80042 -0.061,-0.28989 -0.26458,-0.52895 -0.54115,-0.63591 l -5.60112,-2.16152 c -0.10233,-0.0395 -0.20932,-0.0588 -0.31542,-0.0588 z m 6.42166,-4.36833 h -16.96702 c -0.7944,0 -1.43747,0.64393 -1.43747,1.43793 v 5.75113 c 0,0.794 0.64302,1.43793 1.43747,1.43793 h 10.44251 l -0.33806,-0.87588 h -10.1044 c -0.30965,0 -0.5618,-0.25216 -0.5618,-0.56202 v -5.75114 c 0,-0.31009 0.25193,-0.56202 0.5618,-0.56202 h 16.96701 c 0.31009,0 0.5618,0.25215 0.5618,0.56202 v 5.75114 c 0,0.0961 -0.0262,0.18556 -0.0693,0.26481 -0.0118,0.32718 -0.14561,0.64193 -0.38401,0.88054 l -0.29255,0.29255 h 0.18424 c 0.79439,0 1.43815,-0.64393 1.43815,-1.43793 v -5.75113 c -0.001,-0.79378 -0.64484,-1.43793 -1.43833,-1.43793 z"
       id="path67"
       style="stroke-width:0.0568238" />
  </g>
</svg>
