<?xml version="1.0" encoding="UTF-8" standalone="no"?>
<svg
   xmlns:dc="http://purl.org/dc/elements/1.1/"
   xmlns:cc="http://creativecommons.org/ns#"
   xmlns:rdf="http://www.w3.org/1999/02/22-rdf-syntax-ns#"
   xmlns:svg="http://www.w3.org/2000/svg"
   xmlns="http://www.w3.org/2000/svg"
   xmlns:sodipodi="http://sodipodi.sourceforge.net/DTD/sodipodi-0.dtd"
   xmlns:inkscape="http://www.inkscape.org/namespaces/inkscape"
   version="1.1"
   id="svg4"
   sodipodi:docname="check-box.svg"
   inkscape:version="1.0.2 (e86c870879, 2021-01-15)"
   width="16"
   height="16">
  <metadata
     id="metadata10">
    <rdf:RDF>
      <cc:Work
         rdf:about="">
        <dc:format>image/svg+xml</dc:format>
        <dc:type
           rdf:resource="http://purl.org/dc/dcmitype/StillImage" />
      </cc:Work>
    </rdf:RDF>
  </metadata>
  <defs
     id="defs8" />
  <sodipodi:namedview
     pagecolor="#ffffff"
     bordercolor="#666666"
     borderopacity="1"
     objecttolerance="10"
     gridtolerance="10"
     guidetolerance="10"
     inkscape:pageopacity="0"
     inkscape:pageshadow="2"
     inkscape:window-width="2516"
     inkscape:window-height="1376"
     id="namedview6"
     showgrid="false"
     inkscape:zoom="6.1989694"
     inkscape:cx="4.2541269"
     inkscape:cy="-30.763006"
     inkscape:window-x="44"
     inkscape:window-y="27"
     inkscape:window-maximized="1"
     inkscape:current-layer="svg4" />
  <path
     unicode="î¤"
     d="M 14.22223,0 H 1.77777 C 0.8,0 0,0.800001 0,1.777773 V 14.222227 C 0,15.199999 0.8,16 1.77777,16 H 14.22223 C 15.2,16 16,15.199999 16,14.222227 V 1.777773 C 16,0.800001 15.2,0 14.22223,0 Z M 6.85332,11.813349 c -0.34667,0.346667 -0.90667,0.346667 -1.25333,0 L 2.40888,8.62224 c -0.34667,-0.346667 -0.34667,-0.906667 0,-1.253335 0.34667,-0.346667 0.90667,-0.346667 1.25333,0 l 2.56001,2.560004 6.11557,-6.115571 c 0.34666,-0.346667 0.90666,-0.346667 1.25333,0 0.34667,0.346667 0.34667,0.906668 0,1.253335 l -6.73778,6.746676 z"
     id="path2"
     style="stroke-width:0.0208334" />
</svg>
