<?xml version="1.0" encoding="UTF-8" standalone="no"?>
<svg
   xmlns:dc="http://purl.org/dc/elements/1.1/"
   xmlns:cc="http://creativecommons.org/ns#"
   xmlns:rdf="http://www.w3.org/1999/02/22-rdf-syntax-ns#"
   xmlns:svg="http://www.w3.org/2000/svg"
   xmlns="http://www.w3.org/2000/svg"
   xmlns:sodipodi="http://sodipodi.sourceforge.net/DTD/sodipodi-0.dtd"
   xmlns:inkscape="http://www.inkscape.org/namespaces/inkscape"
   version="1.1"
   id="svg4"
   sodipodi:docname="dropdown.svg"
   inkscape:version="1.0.2 (e86c870879, 2021-01-15)"
   width="16"
   height="16">
  <metadata
     id="metadata10">
    <rdf:RDF>
      <cc:Work
         rdf:about="">
        <dc:format>image/svg+xml</dc:format>
        <dc:type
           rdf:resource="http://purl.org/dc/dcmitype/StillImage" />
      </cc:Work>
    </rdf:RDF>
  </metadata>
  <defs
     id="defs8" />
  <sodipodi:namedview
     pagecolor="#ffffff"
     bordercolor="#666666"
     borderopacity="1"
     objecttolerance="10"
     gridtolerance="10"
     guidetolerance="10"
     inkscape:pageopacity="0"
     inkscape:pageshadow="2"
     inkscape:window-width="2516"
     inkscape:window-height="1376"
     id="namedview6"
     showgrid="false"
     inkscape:zoom="8.7666667"
     inkscape:cx="33.526386"
     inkscape:cy="6.4613788"
     inkscape:window-x="44"
     inkscape:window-y="27"
     inkscape:window-maximized="1"
     inkscape:current-layer="svg4" />
  <path
     unicode=""
     d="m 2.66672,14.2222 h 10.66663 c 0.48889,0 0.88889,-0.40001 0.88889,-0.88889 V 2.66667 c 0,-0.48888 -0.4,-0.88889 -0.88889,-0.88889 H 2.66672 c -0.48891,0 -0.88889,0.40001 -0.88889,0.88889 v 10.66664 c 0,0.4889 0.4,0.88889 0.88889,0.88889 z M 1.7778,0 H 14.22222 C 15.20001,0 16,0.79999 16,1.77778 V 14.2222 C 16,15.19998 15.20001,16 14.22222,16 H 1.7778 C 0.80002,16 0,15.20001 0,14.2222 V 1.77778 C 0,0.79999 0.79999,0 1.7778,0 Z m 8.97448,7.48938 -2.16415,2.25579 c -0.3259,0.3397 -0.85231,0.3397 -1.1782,0 L 5.24573,7.48938 C 4.71923,6.94068 5.09533,5.99997 5.83903,5.99997 h 4.32834 c 0.74367,0 1.11134,0.94071 0.58491,1.48941 z"
     id="path2"
     style="stroke-width:0.0234375" />
</svg>
