<?xml version="1.0" encoding="UTF-8" standalone="no"?>
<svg
   xmlns:dc="http://purl.org/dc/elements/1.1/"
   xmlns:cc="http://creativecommons.org/ns#"
   xmlns:rdf="http://www.w3.org/1999/02/22-rdf-syntax-ns#"
   xmlns:svg="http://www.w3.org/2000/svg"
   xmlns="http://www.w3.org/2000/svg"
   xmlns:sodipodi="http://sodipodi.sourceforge.net/DTD/sodipodi-0.dtd"
   xmlns:inkscape="http://www.inkscape.org/namespaces/inkscape"
   version="1.1"
   id="svg4"
   sodipodi:docname="email.svg"
   inkscape:version="1.0.2 (e86c870879, 2021-01-15)"
   width="20.00001"
   height="16">
  <metadata
     id="metadata10">
    <rdf:RDF>
      <cc:Work
         rdf:about="">
        <dc:format>image/svg+xml</dc:format>
        <dc:type
           rdf:resource="http://purl.org/dc/dcmitype/StillImage" />
      </cc:Work>
    </rdf:RDF>
  </metadata>
  <defs
     id="defs8" />
  <sodipodi:namedview
     pagecolor="#ffffff"
     bordercolor="#666666"
     borderopacity="1"
     objecttolerance="10"
     gridtolerance="10"
     guidetolerance="10"
     inkscape:pageopacity="0"
     inkscape:pageshadow="2"
     inkscape:window-width="2516"
     inkscape:window-height="1376"
     id="namedview6"
     showgrid="false"
     inkscape:zoom="3.0994847"
     inkscape:cx="46.496009"
     inkscape:cy="110.69628"
     inkscape:window-x="44"
     inkscape:window-y="27"
     inkscape:window-maximized="1"
     inkscape:current-layer="svg4" />
  <path
     unicode=""
     d="M 18.00002,0 H 1.999994 C 0.900001,0 0,0.9 0,1.99999 V 14.00001 C 0,15.1 0.900001,16 1.999994,16 H 18.00002 c 1.09999,0 1.99999,-0.9 1.99999,-1.99999 V 1.99999 C 20.00001,0.9 19.10001,0 18.00002,0 Z M 17.60003,4.25 11.060026,8.34001 C 10.410034,8.75 9.590025,8.75 8.940032,8.34001 L 2.400026,4.25 C 2.150018,4.08999 2.000018,3.81999 2.000018,3.53 c 0,-0.67001 0.730008,-1.07 1.300009,-0.72001 l 6.700014,4.19 6.700019,-4.19 c 0.57,-0.34999 1.3,0.05 1.3,0.72001 0,0.28999 -0.15,0.55999 -0.4,0.72 z"
     id="path2"
     style="stroke-width:0.0234375" />
</svg>
