<?xml version="1.0" encoding="UTF-8" standalone="no"?>
<svg
   xmlns:dc="http://purl.org/dc/elements/1.1/"
   xmlns:cc="http://creativecommons.org/ns#"
   xmlns:rdf="http://www.w3.org/1999/02/22-rdf-syntax-ns#"
   xmlns:svg="http://www.w3.org/2000/svg"
   xmlns="http://www.w3.org/2000/svg"
   xmlns:sodipodi="http://sodipodi.sourceforge.net/DTD/sodipodi-0.dtd"
   xmlns:inkscape="http://www.inkscape.org/namespaces/inkscape"
   version="1.1"
   id="svg4"
   sodipodi:docname="paragraph-text.svg"
   width="12.79609"
   height="16.000002"
   inkscape:version="1.0.2 (e86c870879, 2021-01-15)">
  <metadata
     id="metadata10">
    <rdf:RDF>
      <cc:Work
         rdf:about="">
        <dc:format>image/svg+xml</dc:format>
        <dc:type
           rdf:resource="http://purl.org/dc/dcmitype/StillImage" />
      </cc:Work>
    </rdf:RDF>
  </metadata>
  <defs
     id="defs8" />
  <sodipodi:namedview
     pagecolor="#ffffff"
     bordercolor="#666666"
     borderopacity="1"
     objecttolerance="10"
     gridtolerance="10"
     guidetolerance="10"
     inkscape:pageopacity="0"
     inkscape:pageshadow="2"
     inkscape:window-width="2516"
     inkscape:window-height="1376"
     id="namedview6"
     showgrid="false"
     inkscape:zoom="12.397939"
     inkscape:cx="38.035735"
     inkscape:cy="31.899545"
     inkscape:window-x="44"
     inkscape:window-y="27"
     inkscape:window-maximized="1"
     inkscape:current-layer="svg4" />
  <path
     unicode=""
     d="m 4.2470472,8.5236178 2.5e-5,3e-7 C 1.7537496,8.5153302 -0.23164141,6.3670073 0.02185059,3.8318705 0.24231359,1.616284 2.2296036,-0.00737739 4.4565868,2.5209705e-5 L 11.734096,0.02421536 c 0.586045,0.0019479 1.063937,0.48302689 1.061989,1.06907244 -0.0019,0.5860456 -0.483027,1.0639368 -1.069073,1.0619888 l -1.06553,-0.00354 -0.0425,12.7862684 c -0.0019,0.586045 -0.482178,1.063939 -1.0682235,1.061991 -0.5860456,-0.0019 -1.0647858,-0.48303 -1.0628379,-1.069075 L 8.5304203,2.1446512 6.399384,2.1375678 6.3568829,14.923835 c -0.00195,0.586046 -0.4821778,1.06394 -1.0682234,1.061992 -0.5860456,-0.0019 -1.0648108,-0.48303 -1.0628628,-1.069075 z"
     id="path2"
     style="stroke-width:0.0249733" />
</svg>
