<?xml version="1.0" encoding="UTF-8" standalone="no"?>
<svg
   xmlns:dc="http://purl.org/dc/elements/1.1/"
   xmlns:cc="http://creativecommons.org/ns#"
   xmlns:rdf="http://www.w3.org/1999/02/22-rdf-syntax-ns#"
   xmlns:svg="http://www.w3.org/2000/svg"
   xmlns="http://www.w3.org/2000/svg"
   xmlns:sodipodi="http://sodipodi.sourceforge.net/DTD/sodipodi-0.dtd"
   xmlns:inkscape="http://www.inkscape.org/namespaces/inkscape"
   version="1.1"
   id="svg4"
   sodipodi:docname="radio-button.svg"
   width="16"
   height="16"
   inkscape:version="1.0.2 (e86c870879, 2021-01-15)">
  <metadata
     id="metadata10">
    <rdf:RDF>
      <cc:Work
         rdf:about="">
        <dc:format>image/svg+xml</dc:format>
        <dc:type
           rdf:resource="http://purl.org/dc/dcmitype/StillImage" />
      </cc:Work>
    </rdf:RDF>
  </metadata>
  <defs
     id="defs8" />
  <sodipodi:namedview
     pagecolor="#ffffff"
     bordercolor="#666666"
     borderopacity="1"
     objecttolerance="10"
     gridtolerance="10"
     guidetolerance="10"
     inkscape:pageopacity="0"
     inkscape:pageshadow="2"
     inkscape:window-width="2516"
     inkscape:window-height="1376"
     id="namedview6"
     showgrid="false"
     inkscape:zoom="0.54791667"
     inkscape:cx="595.07666"
     inkscape:cy="207.14921"
     inkscape:window-x="44"
     inkscape:window-y="27"
     inkscape:window-maximized="1"
     inkscape:current-layer="svg4" />
  <path
     unicode=""
     d="M 8,16 C 3.584003,16 0,12.415997 0,8 0,3.584003 3.584003,0 8,0 c 4.415997,0 8,3.584003 8,8 0,4.415997 -3.584003,8 -8,8 z M 8,1.600011 C 4.463997,1.600011 1.600011,4.464015 1.600011,8 c 0,3.535985 2.864004,6.399989 6.399989,6.399989 3.536003,0 6.399989,-2.864004 6.399989,-6.399989 C 14.399989,4.464015 11.535985,1.600011 8,1.600011 Z m 0,2.399998 c 2.209123,0 3.999991,1.790886 3.999991,3.999991 0,2.209105 -1.790886,3.999991 -3.999991,3.999991 C 5.790858,11.999991 4.000009,10.209123 4.000009,8 4.000009,5.790877 5.790877,4.000009 8,4.000009 Z"
     id="path2"
     style="stroke-width:0.01875" />
</svg>
