<?xml version="1.0" encoding="UTF-8" standalone="no"?>
<svg
   xmlns:dc="http://purl.org/dc/elements/1.1/"
   xmlns:cc="http://creativecommons.org/ns#"
   xmlns:rdf="http://www.w3.org/1999/02/22-rdf-syntax-ns#"
   xmlns:svg="http://www.w3.org/2000/svg"
   xmlns="http://www.w3.org/2000/svg"
   xmlns:sodipodi="http://sodipodi.sourceforge.net/DTD/sodipodi-0.dtd"
   xmlns:inkscape="http://www.inkscape.org/namespaces/inkscape"
   version="1.1"
   id="svg4"
   sodipodi:docname="single-line-text.svg"
   width="16"
   height="16"
   inkscape:version="1.0.2 (e86c870879, 2021-01-15)">
  <metadata
     id="metadata10">
    <rdf:RDF>
      <cc:Work
         rdf:about="">
        <dc:format>image/svg+xml</dc:format>
        <dc:type
           rdf:resource="http://purl.org/dc/dcmitype/StillImage" />
        <dc:title></dc:title>
      </cc:Work>
    </rdf:RDF>
  </metadata>
  <defs
     id="defs8" />
  <sodipodi:namedview
     pagecolor="#ffffff"
     bordercolor="#666666"
     borderopacity="1"
     objecttolerance="10"
     gridtolerance="10"
     guidetolerance="10"
     inkscape:pageopacity="0"
     inkscape:pageshadow="2"
     inkscape:window-width="2516"
     inkscape:window-height="1376"
     id="namedview6"
     showgrid="false"
     fit-margin-top="0"
     fit-margin-left="0"
     fit-margin-right="0"
     fit-margin-bottom="0"
     inkscape:zoom="17.533333"
     inkscape:cx="34.090836"
     inkscape:cy="15.669893"
     inkscape:window-x="44"
     inkscape:window-y="27"
     inkscape:window-maximized="1"
     inkscape:current-layer="svg4"
     inkscape:document-rotation="0" />
  <path
     unicode=""
     d="m 15.88722,2.603135 -2.2271,1.994447 C 13.404722,4.826376 12.973613,4.669122 12.973613,4.347413 V 3.067782 H 1.7982714 c -0.4390308,0 -0.7982336,-0.321684 -0.7982336,-0.714816 0,-0.3931317 0.3592028,-0.7148153 0.7982336,-0.7148153 H 12.973613 V 0.35851928 c 0,-0.3216835 0.431109,-0.4789628 0.678492,-0.2501689 L 15.879204,2.102797 c 0.159703,0.135817 0.159703,0.364522 0.008,0.500338 z M 0.11278855,2.102819 2.3398881,0.10837248 c 0.2554452,-0.228794 0.6864839,-0.0715367 0.6864839,0.2501689 V 1.6381728 h 11.175435 c 0.439008,0 0.79821,0.3216835 0.79821,0.7148152 0,0.393132 -0.359202,0.714816 -0.79821,0.714816 H 3.026372 v 1.279631 c 0,0.321684 -0.4310387,0.478963 -0.6785151,0.250169 L 0.1207573,2.603157 C -0.03889881,2.467341 -0.03889881,2.238636 0.11278855,2.102819 Z M 5.5000104,7.717668 h 4.9999876 l 0.66,-1.505889 c 0.15,-0.338822 0.499992,-0.564705 0.889991,-0.564705 0.689999,0 1.150007,0.668228 0.880007,1.261168 L 9.0499919,15.350588 C 8.8699919,15.745882 8.4599999,16 7.9999925,16 7.539985,16 7.129993,15.745882 6.9499936,15.350588 L 3.0699891,6.908242 C 2.7999894,6.315302 3.2699812,5.647074 3.9599805,5.647074 c 0.3899997,0 0.7399915,0.225883 0.8899914,0.564705 l 0.6499916,1.505889 z m 2.5000055,6.418826 1.8700062,-4.72471 H 6.130033 l 1.8700063,4.72471 z"
     id="path2"
     inkscape:export-xdpi="96"
     inkscape:export-ydpi="96"
     style="stroke-width:0.0227377" />
</svg>
