<?xml version="1.0" encoding="UTF-8" standalone="no"?>
<svg
   xmlns:dc="http://purl.org/dc/elements/1.1/"
   xmlns:cc="http://creativecommons.org/ns#"
   xmlns:rdf="http://www.w3.org/1999/02/22-rdf-syntax-ns#"
   xmlns:svg="http://www.w3.org/2000/svg"
   xmlns="http://www.w3.org/2000/svg"
   xmlns:sodipodi="http://sodipodi.sourceforge.net/DTD/sodipodi-0.dtd"
   xmlns:inkscape="http://www.inkscape.org/namespaces/inkscape"
   version="1.1"
   id="svg4"
   sodipodi:docname="upload.svg"
   width="13.50005"
   height="16.000002"
   inkscape:version="1.0.2 (e86c870879, 2021-01-15)">
  <metadata
     id="metadata10">
    <rdf:RDF>
      <cc:Work
         rdf:about="">
        <dc:format>image/svg+xml</dc:format>
        <dc:type
           rdf:resource="http://purl.org/dc/dcmitype/StillImage" />
      </cc:Work>
    </rdf:RDF>
  </metadata>
  <defs
     id="defs8" />
  <sodipodi:namedview
     pagecolor="#ffffff"
     bordercolor="#666666"
     borderopacity="1"
     objecttolerance="10"
     gridtolerance="10"
     guidetolerance="10"
     inkscape:pageopacity="0"
     inkscape:pageshadow="2"
     inkscape:window-width="2516"
     inkscape:window-height="1376"
     id="namedview6"
     showgrid="false"
     inkscape:zoom="0.38743559"
     inkscape:cx="240.13761"
     inkscape:cy="84.160301"
     inkscape:window-x="44"
     inkscape:window-y="27"
     inkscape:window-maximized="1"
     inkscape:current-layer="svg4" />
  <path
     unicode=""
     d="m 4.82145,12.142843 h 3.85716 c 0.53037,0 0.9643,-0.433931 0.9643,-0.964291 V 6.3570725 h 1.53322 c 0.85821,0 1.29214,-1.04143 0.68463,-1.64893 l -4.42608,-4.42609 c -0.37607,-0.37607 -0.98357,-0.37607 -1.35964,0 l -4.42609,4.42609 c -0.6075,0.6075 -0.18322,1.64893 0.67501,1.64893 h 1.53322 v 4.8214805 c 0,0.53036 0.43393,0.96429 0.9643,0.96429 z M 0.9643,14.071412 h 11.57145 c 0.53037,0 0.9643,0.43393 0.9643,0.96429 0,0.530371 -0.43393,0.9643 -0.9643,0.9643 H 0.9643 c -0.53037,0 -0.9643,-0.43393 -0.9643,-0.9643 0,-0.53036 0.43393,-0.96429 0.9643,-0.96429 z"
     id="path2"
     style="stroke-width:0.0226005" />
</svg>
